<svg version="1.1" xmlns="http://www.w3.org/2000/svg" viewBox="0 0 3420.0000000000045 2923.916666666666" width="6840.000000000009" height="5847.833333333332">
  <!-- svg-source:excalidraw -->
  
  <defs>
    <style>
      @font-face {
        font-family: "Virgil";
        src: url("https://excalidraw.com/Virgil.woff2");
      }
      @font-face {
        font-family: "Cascadia";
        src: url("https://excalidraw.com/Cascadia.woff2");
      }
    </style>
  </defs>
  <rect x="0" y="0" width="3420.0000000000045" height="2923.916666666666" fill="#ffffff"></rect><g stroke-linecap="round" transform="translate(10 777.7500000000006) rotate(0 526.6666666666665 305.8333333333333)"><path d="M-0.53 0.39 C211.6 1.02, 423.48 2.01, 1053.22 -0.73 M0.03 0 C384.8 -3.55, 769.89 -3.22, 1053.06 0.16 M1053.07 0.74 C1051.42 220.83, 1051.95 443, 1053.72 611.19 M1053.12 0.29 C1051.71 169.42, 1051.08 339.98, 1053.36 611.63 M1053.61 611.94 C826.56 615.45, 598.21 615.97, 0.46 610.91 M1053.36 611.96 C673.13 607.87, 292.3 607.36, -0.06 611.64 M-0.49 611.31 C-1.36 480.95, -1.49 349.93, 0.76 -0.32 M-0.19 611.41 C-1.7 375.53, -2.11 139.72, -0.14 -0.09" stroke="#000000" stroke-width="1" fill="none"></path></g><g stroke-linecap="round" transform="translate(361.66666666666697 1006.0833333333339) rotate(0 160 47.499999999999886)"><path d="M0.77 -0.18 C124.3 -0.04, 251.85 -2.09, 320.86 -1.32 M0.53 0.19 C66.29 -2.36, 132.55 -1.72, 319.4 0.32 M319.43 0.89 C318.51 30.01, 321.32 57.17, 321.72 96.6 M320.63 -0.1 C319.15 28.28, 319.18 55.12, 320.75 94.78 M319.4 93.64 C194.79 94.56, 68.57 93.18, 1.22 96.06 M319.68 94.45 C234.95 95.02, 148.13 95.43, 0.14 95.13 M1.65 93.12 C-0.04 73.15, 0.98 48.56, -1.4 0 M-0.13 95.44 C1.63 64.5, 0.66 32.63, 0.08 -0.91" stroke="#000000" stroke-width="1" fill="none"></path></g><g stroke-linecap="round" transform="translate(1176.6666666666652 778.5833333333339) rotate(0 526.6666666666665 305.83333333333337)"><path d="M-0.13 0.45 C211.3 2.6, 421.65 2.84, 1053.95 0.5 M-0.19 0.08 C386.12 2.31, 772.01 2.34, 1053.18 -0.06 M1053.99 0.34 C1053.51 217.31, 1054.15 436.13, 1053.7 612.18 M1053.36 0.33 C1055.75 143.21, 1055.15 286.7, 1053.05 611.35 M1053.17 611.85 C641.88 612.87, 230.9 613.1, -0.73 611.5 M1053.61 611.49 C779.51 613.25, 505.34 612.83, 0.1 611.42 M0.16 611.32 C2.18 457.39, 2.69 302.36, 0.56 0.37 M0.05 611.43 C-2.3 402.22, -2.03 192.2, -0.25 0.32" stroke="#000000" stroke-width="1" fill="none"></path></g><g transform="translate(1250 830.4166666666673) rotate(0 103.15384615384619 18)"><text x="0" y="25" font-family="Virgil, Segoe UI Emoji" font-size="27.69230769230769px" fill="#000000" text-anchor="start" style="white-space: pre;" direction="ltr">Hosted Events:</text></g><g stroke-linecap="round" transform="translate(1245 884.4166666666671) rotate(0 457.49999999999955 81.66666666666669)"><path d="M0.63 0.4 C183.44 -1.5, 367.82 -0.04, 914.63 -0.09 M0.32 0.12 C262.84 2.14, 524.91 1.46, 915.1 0.08 M915.26 -0.9 C912.25 58.72, 914.26 121.48, 913.48 162.96 M915.41 -0.58 C915.21 46.24, 915.16 91.85, 915.77 162.96 M914.61 163.3 C689.6 165.45, 464.61 165.24, 0.55 162.63 M915.4 163.53 C674.61 162.95, 433.51 163.54, 0.21 162.94 M-0.88 164.76 C1.64 117.71, 2.24 75.28, -1.18 -1.31 M0.93 163.58 C1.67 106.17, 0.46 49.84, -0.17 0.77" stroke="#000000" stroke-width="1" fill="none"></path></g><g transform="translate(1281.666666666666 900.4166666666671) rotate(0 58 13)"><text x="0" y="18" font-family="Virgil, Segoe UI Emoji" font-size="20px" fill="#000000" text-anchor="start" style="white-space: pre;" direction="ltr">Event Name</text></g><g transform="translate(1282 939.4166666666671) rotate(0 69.16666666666697 9.222222222222285)"><text x="0" y="12.444444444444535" font-family="Virgil, Segoe UI Emoji" font-size="14.188034188034255px" fill="#000000" text-anchor="start" style="white-space: pre;" direction="ltr">&lt;Event Description&gt;</text></g><g stroke-linecap="round" transform="translate(1983.333333333333 902.7500000000005) rotate(0 77.5 31.666666666666686)"><path d="M-0.85 1 C54.96 -0.41, 110.05 0.14, 154.74 -0.53 M0 -0.63 C52.24 -1.25, 103.78 -1.79, 154.95 -0.26 M156.05 1.3 C156.13 22.57, 155.09 42.42, 154.38 64.11 M155.46 0.02 C155.07 22.94, 154.24 47, 155.84 62.78 M156.05 62.16 C97.48 64.42, 44.04 63.07, 1.46 62.13 M154.87 62.51 C102.72 63.63, 50.98 62.37, -0.75 63.99 M-1.38 65.01 C1.32 37.54, -1.76 13.57, 1.86 0.34 M-0.56 63.91 C0.79 50.67, 0.28 35.66, 0.35 0.54" stroke="#000000" stroke-width="1" fill="none"></path></g><g transform="translate(1988.333333333333 921.4166666666672) rotate(0 72.5 13)"><text x="72.5" y="18" font-family="Virgil, Segoe UI Emoji" font-size="20px" fill="#000000" text-anchor="middle" style="white-space: pre;" direction="ltr">Show Details</text></g><g transform="translate(1273.333333333333 1008.7500000000006) rotate(0 152 13)"><text x="0" y="18" font-family="Virgil, Segoe UI Emoji" font-size="20px" fill="#000000" text-anchor="start" style="white-space: pre;" direction="ltr">Timing: &lt;12/01/2022 - 1:30PM&gt;</text></g><g stroke-linecap="round" transform="translate(1244.166666666667 1077.75) rotate(0 457.49999999999955 81.66666666666663)"><path d="M0.04 0.01 C336.3 -1.62, 672.19 -1.63, 915.49 0.29 M-0.02 0.29 C320.34 1.94, 639.96 2.04, 914.76 0.31 M915.02 -1.4 C915.3 57, 913.74 116.44, 913.33 162.31 M915.9 -0.35 C913.6 55.82, 914.87 109.55, 914.55 162.89 M915.46 163.75 C715.67 162.53, 516.52 162.96, 0.34 162.62 M915.27 163.32 C586.14 160.53, 256.76 160.56, -0.24 163.2 M1.06 162.15 C0.84 128.32, -0.29 92.76, 1.72 1.66 M-0.35 162.8 C-1.4 112.19, -1.82 59.55, -0.18 -0.17" stroke="#000000" stroke-width="1" fill="none"></path></g><g transform="translate(1280.8333333333312 1093.75) rotate(0 58 13)"><text x="0" y="18" font-family="Virgil, Segoe UI Emoji" font-size="20px" fill="#000000" text-anchor="start" style="white-space: pre;" direction="ltr">Event Name</text></g><g transform="translate(1281.166666666667 1132.75) rotate(0 69.16666666666697 9.222222222222285)"><text x="0" y="12.444444444444535" font-family="Virgil, Segoe UI Emoji" font-size="14.188034188034255px" fill="#000000" text-anchor="start" style="white-space: pre;" direction="ltr">&lt;Event Description&gt;</text></g><g transform="translate(1272.499999999999 1202.0833333333335) rotate(0 156.5 13)"><text x="0" y="18" font-family="Virgil, Segoe UI Emoji" font-size="20px" fill="#000000" text-anchor="start" style="white-space: pre;" direction="ltr">Timing: &lt;12/01/2022 - 2:30PM&gt;</text></g><g stroke-linecap="round" transform="translate(1983.333333333333 826.0833333333338) rotate(0 86.66666666666652 20.833333333333314)"><path d="M-1.12 1.73 C44.98 0.69, 91.81 -0.85, 175.12 -0.46 M-0.46 -0.55 C56.73 0.74, 113.15 1.97, 174.14 0.29 M171.36 -0.39 C171.88 13.67, 171.99 32.9, 172.43 41.28 M173.12 0.66 C173.12 12.07, 173.86 22.27, 173.14 41.65 M172.25 43.33 C132.39 43.64, 93.15 40.42, -0.42 40.68 M172.53 41.94 C126.31 42.13, 80.16 43.48, 0.42 42.03 M-1.48 39.95 C1.28 30.44, -1.79 15.59, -0.77 0 M0 41.83 C0.77 25.65, -0.52 10.17, 0.19 -0.47" stroke="#000000" stroke-width="1" fill="none"></path></g><g transform="translate(2018.3333333333321 832.0833333333338) rotate(0 57.5 13)"><text x="0" y="18" font-family="Virgil, Segoe UI Emoji" font-size="20px" fill="#000000" text-anchor="start" style="white-space: pre;" direction="ltr">Create New</text></g><g transform="translate(14.999999999998636 743.7500000000008) rotate(0 167 13)"><text x="0" y="18" font-family="Virgil, Segoe UI Emoji" font-size="20px" fill="#000000" text-anchor="start" style="white-space: pre;" direction="ltr">MAIN PAGE - https://netlify.app/</text></g><g transform="translate(1182.9999999999973 746.4166666666672) rotate(0 182.5 13)"><text x="0" y="18" font-family="Virgil, Segoe UI Emoji" font-size="20px" fill="#000000" text-anchor="start" style="white-space: pre;" direction="ltr">LIST PAGE - https://netlify.app/list</text></g><g stroke-linecap="round" transform="translate(13.333333333330302 1511.8333333333337) rotate(0 526.6666666666665 305.83333333333326)"><path d="M0.76 -0.64 C258.98 -2.2, 519.26 -2.19, 1053.03 -0.43 M0.28 0.01 C284.78 -3.94, 569.81 -3.77, 1053.38 -0.29 M1053.07 -0.67 C1052.6 242.54, 1051.91 485.61, 1053.53 611.26 M1053.11 0.13 C1051.58 175.25, 1051.63 350.28, 1053.53 611.54 M1053.44 611.34 C683.14 610.7, 312.27 610.8, -0.04 612.32 M1052.94 611.9 C825.78 612.79, 598.69 612.32, -0.06 611.36 M-0.31 611.07 C0.06 438.52, -0.64 265.96, 0.53 -0.72 M-0.08 611.31 C-1.98 488.23, -2.38 365.01, 0.04 0.04" stroke="#000000" stroke-width="1" fill="none"></path></g><g stroke-linecap="round" transform="translate(364.99999999999636 1740.166666666667) rotate(0 160 47.499999999999886)"><path d="M-1.13 -0.89 C77.09 -1.64, 153.61 -2.67, 319.24 -0.41 M0.02 -0.02 C126.15 -1.17, 252.98 -1.49, 319.49 0.68 M318.34 1.08 C318.8 23.33, 319.37 48.43, 318.98 94.72 M320.32 -0.75 C320.16 22.24, 320.24 46.23, 319.69 95.51 M319.43 94.95 C213.79 94.02, 106.87 95.24, 1.15 93.82 M320.41 94.4 C236.84 92.41, 152.63 92.68, -0.54 94.88 M-1.5 95.99 C-0.09 64.44, 0.92 36.72, -1.81 -1.96 M-0.9 95.55 C-0.54 57.52, 0.08 21.02, 0.1 -0.58" stroke="#000000" stroke-width="1" fill="none"></path></g><g transform="translate(451.6666666666629 1761.1666666666672) rotate(0 72.1025641025642 24.666666666666742)"><text x="0" y="34.333333333333464" font-family="Virgil, Segoe UI Emoji" font-size="37.94871794871805px" fill="#000000" text-anchor="start" style="white-space: pre;" direction="ltr">Connect</text></g><g stroke-linecap="round" transform="translate(1179.9999999999945 1512.666666666667) rotate(0 526.6666666666665 305.83333333333337)"><path d="M0.34 0.28 C416.68 2.37, 832.23 2.44, 1054.1 0.71 M-0.21 0.23 C390.07 0.19, 779.91 0.53, 1053.14 -0.2 M1053.04 -0.25 C1051.23 163.56, 1050.89 326.61, 1052.86 611.26 M1053.59 -0.25 C1054.4 150.3, 1053.99 300.41, 1053.47 611.53 M1053.84 610.93 C723.43 611.48, 392.97 610.84, -0.32 611.86 M1053.46 611.45 C841.01 608.01, 629.08 608, 0.05 611.51 M-0.19 611.37 C2.06 452.67, 1.11 291.82, 0.72 0.54 M0.04 611.49 C2.5 439.83, 2.25 267.69, 0.13 -0.06" stroke="#000000" stroke-width="1" fill="none"></path></g><g transform="translate(18.333333333328483 1477.833333333334) rotate(0 358 13)"><text x="0" y="18" font-family="Virgil, Segoe UI Emoji" font-size="20px" fill="#000000" text-anchor="start" style="white-space: pre;" direction="ltr">EVENT PAGE (Unique for each event) - https://netlify.app/event/1jhgjh2</text></g><g transform="translate(1186.3333333333267 1480.5000000000002) rotate(0 237 13)"><text x="0" y="18" font-family="Virgil, Segoe UI Emoji" font-size="20px" fill="#000000" text-anchor="start" style="white-space: pre;" direction="ltr">EVENT PAGE - https://netlify.app/event/1jhgjh2</text></g><g stroke-linecap="round" transform="translate(1253.3333333333285 1607.7500000000005) rotate(0 447.5 211.66666666666663)"><path d="M0.1 -0.29 C249.37 3.28, 499.43 2.57, 895.21 -0.48 M-0.26 0.28 C255.63 0.63, 511.98 0.68, 894.72 0.26 M895.5 -0.4 C896.39 165.69, 897.2 330.04, 896 423.21 M895.41 0.19 C896.23 146.37, 895.96 293.4, 895.04 423.07 M894.88 424.01 C690.19 424.13, 484.83 423.49, 0.32 423.51 M895.15 423.32 C705.2 423.68, 514.72 424.03, -0.06 423.19 M0.21 423.42 C-1.69 298.48, -0.99 175.32, 0.12 -0.87 M0.22 423.47 C0.9 277.42, 0.34 130.41, -0.27 0.29" stroke="#000000" stroke-width="1" fill="none"></path></g><g stroke-linecap="round" transform="translate(1624.9999999999964 1771.0833333333337) rotate(0 89.99999999999955 40.83333333333337)"><path d="M1.8 0.33 C40.52 0.48, 81.37 0.1, 181.67 0.05 M-0.25 -0.81 C37.86 1.3, 76.19 2.53, 180.62 0.79 M181.1 -1.54 C181.23 24.34, 180.34 46.62, 181.98 80.43 M179.36 -0.43 C179.35 16.91, 180.84 34.68, 180.68 80.67 M180.44 82.87 C108.85 80.17, 37.37 81.08, -0.11 82.18 M179.92 80.92 C135.48 81.53, 91.65 81.92, -0.66 81.03 M-1.31 82.05 C-1.52 54.66, 1.51 26.19, 1.88 0.59 M-0.85 82.58 C0.17 63.66, 0.44 46.07, 0.67 -0.39" stroke="#000000" stroke-width="1" fill="none"></path></g><g transform="translate(1648.3333333333267 1790.416666666667) rotate(0 35.80769230769238 22.16666666666663)"><text x="0" y="31.333333333333265" font-family="Virgil, Segoe UI Emoji" font-size="34.10256410256405px" fill="#000000" text-anchor="start" style="white-space: pre;" direction="ltr">Play</text></g><g stroke-linecap="round"><g transform="translate(1753.3333333333285 1786.0833333333337) rotate(0 0.4254225795948514 25.027160616420815)"><path d="M-0.53 1.03 C-0.62 9.21, 0.3 40.17, 0.41 48.1 M1.39 0.53 C1.1 8.98, 0 41.25, -0.32 49.52" stroke="#000000" stroke-width="1" fill="none"></path></g></g><g stroke-linecap="round"><g transform="translate(1753.3333333333285 1787.7500000000005) rotate(0 14.498444683849812 15.93706452979552)"><path d="M-0.83 -0.82 C4.02 4.36, 24.6 26.05, 29.83 31.33 M0.94 1.37 C5.55 6.7, 23.94 27.62, 28.79 32.69" stroke="#000000" stroke-width="1" fill="none"></path></g></g><g stroke-linecap="round"><g transform="translate(1779.9999999999955 1819.4166666666672) rotate(0 -12.582335322949803 7.998292575481628)"><path d="M0.35 -0.76 C-3.91 2, -20.51 12.89, -25.09 15.73 M-0.93 1.46 C-5.29 4.41, -21.54 14.1, -25.51 16.76" stroke="#000000" stroke-width="1" fill="none"></path></g></g><g transform="translate(447.897435897431 1024.75) rotate(0 72.1025641025642 24.666666666666742)"><text x="0" y="34.333333333333464" font-family="Virgil, Segoe UI Emoji" font-size="37.94871794871805px" fill="#000000" text-anchor="start" style="white-space: pre;" direction="ltr">Connect</text></g><g stroke-linecap="round" transform="translate(2356.6666666666715 773) rotate(0 526.6666666666665 305.83333333333337)"><path d="M0.73 0.29 C278.54 -3.1, 558.74 -3.88, 1053.46 -0.35 M0.19 -0.07 C250.76 3.18, 502.16 3.06, 1053.62 -0.14 M1053.43 0.18 C1054.33 127.09, 1054.82 255.06, 1053.72 611.4 M1053.62 -0.17 C1052.08 237.13, 1052.01 474.34, 1053.63 611.84 M1053.43 611.34 C678.09 611.55, 302.85 612.24, 0.3 611.59 M1053.59 611.57 C791.89 608.87, 530.16 609.05, 0.35 611.35 M-0.43 610.98 C-2.32 382.75, -2.29 153.4, -0.33 -0.53 M-0.36 612.05 C2.46 430.71, 2.43 250.58, -0.39 -0.39" stroke="#000000" stroke-width="1" fill="none"></path></g><g stroke-linecap="round" transform="translate(2425.0000000000073 878.8333333333333) rotate(0 457.49999999999955 227.5)"><path d="M-0.67 0.31 C348.93 -1.81, 697.37 -1.68, 914.51 -0.25 M-0.19 -0.22 C200.86 0.34, 401.5 0.55, 914.63 0.15 M915.1 -0.55 C915.96 157.91, 915.74 315.6, 915.84 454.55 M914.87 -0.19 C916.34 101.01, 916.9 202.81, 915.27 455.19 M915.26 454.24 C626.83 453.42, 337.96 453.42, -0.41 455.17 M915.27 454.87 C698.71 454.21, 482.25 453.84, 0.3 455.31 M-0.49 455.03 C0.69 325.08, 0.75 195.44, -0.05 -0.93 M0.09 454.58 C1.99 319.87, 1.47 183.99, 0.26 -0.35" stroke="#000000" stroke-width="1" fill="none"></path></g><g transform="translate(2463.3333333333385 909.8333333333333) rotate(0 58 13)"><text x="0" y="18" font-family="Virgil, Segoe UI Emoji" font-size="20px" fill="#000000" text-anchor="start" style="white-space: pre;" direction="ltr">Event Name</text></g><g transform="translate(2462.0000000000073 960.5) rotate(0 69.16666666666697 9.222222222222285)"><text x="0" y="12.444444444444535" font-family="Virgil, Segoe UI Emoji" font-size="14.188034188034255px" fill="#000000" text-anchor="start" style="white-space: pre;" direction="ltr">&lt;Event Description&gt;</text></g><g transform="translate(2465.0000000000055 1078.1666666666667) rotate(0 152 13)"><text x="0" y="18" font-family="Virgil, Segoe UI Emoji" font-size="20px" fill="#000000" text-anchor="start" style="white-space: pre;" direction="ltr">Timing: &lt;12/01/2022 - 1:30PM&gt;</text></g><g stroke-linecap="round" transform="translate(3163.3333333333394 820.4999999999998) rotate(0 86.66666666666652 20.833333333333314)"><path d="M-1.11 1.28 C58.33 2.26, 119.42 -1.03, 174.08 0.94 M-0.58 0.72 C54.13 0.3, 108.04 0.69, 172.86 -0.77 M172.52 -0.89 C171.93 16.97, 174.01 32.12, 174.14 41.98 M172.38 0.63 C173.07 13.35, 173.06 25.45, 173.55 41.03 M172.67 42.99 C110.37 44.62, 45.29 44.34, 1.56 41.36 M173.36 41.18 C130.09 40.35, 87.13 40.72, -0.98 41.64 M-1.77 41.88 C0.2 30.93, -2.35 25.23, -1.49 1.86 M0.81 40.75 C-0.22 31.13, 0.91 21.57, 0.24 0.32" stroke="#000000" stroke-width="1" fill="none"></path></g><g transform="translate(3223.3333333333394 828.9999999999998) rotate(0 24 13)"><text x="0" y="18" font-family="Virgil, Segoe UI Emoji" font-size="20px" fill="#000000" text-anchor="start" style="white-space: pre;" direction="ltr">Save</text></g><g transform="translate(2363.0000000000036 740.8333333333333) rotate(0 214.5 13)"><text x="0" y="18" font-family="Virgil, Segoe UI Emoji" font-size="20px" fill="#000000" text-anchor="start" style="white-space: pre;" direction="ltr">CREATE PAGE - https://netlify.app/create</text></g><g transform="translate(2433.512820512822 824.7500000000003) rotate(0 103.15384615384619 18)"><text x="0" y="25" font-family="Virgil, Segoe UI Emoji" font-size="27.69230769230769px" fill="#000000" text-anchor="start" style="white-space: pre;" direction="ltr">Hosted Events:</text></g><g stroke-linecap="round" transform="translate(2456.6666666666697 904.4166666666669) rotate(0 259.1666666666665 19.166666666666572)"><path d="M-0.65 0.65 C107.76 1.76, 215.02 0.49, 518.63 -0.05 M0.25 -0.25 C109.55 -0.45, 218.38 -0.14, 518.66 0.19 M520.08 -1.31 C518.74 6.55, 519.01 15.77, 519.78 37.6 M517.84 0.6 C517.51 11.08, 517.98 22.39, 517.7 39.08 M518.12 37.82 C411.08 37.92, 303.83 37.44, 0.27 38.95 M518.11 38.64 C351.62 37.66, 184.7 37.82, -0.28 38.57 M-1.5 39.98 C0.33 31.53, -1.41 20.48, -0.62 -0.5 M0.91 38.07 C-0.55 27.1, 0.22 17.09, 0.94 -0.37" stroke="#000000" stroke-width="1" fill="none"></path></g><g stroke-linecap="round" transform="translate(2455.8333333333358 951.916666666667) rotate(0 345 47.499999999999886)"><path d="M0.69 0.46 C166.36 0.48, 332.56 0.11, 690.35 -0.5 M0.33 -0.28 C186.12 1.59, 371.77 1.47, 689.66 -0.19 M688.79 1.74 C691.39 32.29, 691.39 68.17, 691.73 95.17 M690.1 -0.94 C690.93 22.36, 691.78 43.66, 689.42 95.09 M689.22 94.72 C496.65 97.31, 304.11 97.39, 0.33 95.51 M690.18 95.26 C478.03 95.93, 266.86 95.52, 0.24 94.72 M-1.74 94.56 C-1.31 58.87, -2.24 20.83, -0.88 0.43 M0.39 95.08 C0.76 58.12, -0.15 22.27, 0.93 -0.95" stroke="#000000" stroke-width="1" fill="none"></path></g><g stroke-linecap="round" transform="translate(2475.0000000000036 1162.7500000000002) rotate(0 65 61.66666666666663)"><path d="M-1.94 -0.26 C41.85 0.24, 80.67 -0.25, 131.11 0.98 M-0.77 -0.97 C47.29 -1.4, 95.25 0.4, 129.82 -0.36 M131.23 0.62 C129.23 26.29, 130.58 51.77, 128.48 122.14 M129.21 0.53 C131.65 33.18, 131.49 64.29, 130.53 122.37 M128.45 123.12 C91.78 120.35, 51.58 121.49, 0.69 122.93 M130.71 122.38 C94.84 124.85, 60.04 124.72, -0.95 123.24 M1.07 123.4 C2.01 96.85, 0.3 74.21, 1.68 -1.32 M0.45 123.85 C-0.37 84.13, -1.08 44.49, 0.96 0.75" stroke="#000000" stroke-width="1" fill="none"></path></g><g transform="translate(2475.0000000000027 1125.4166666666667) rotate(0 23 13)"><text x="0" y="18" font-family="Virgil, Segoe UI Emoji" font-size="20px" fill="#000000" text-anchor="start" style="white-space: pre;" direction="ltr">NFT:</text></g><g stroke-linecap="round" transform="translate(2633.3333333333367 1161.0833333333337) rotate(0 65 61.66666666666663)"><path d="M1.26 -0.91 C36.31 -1.54, 71.3 -1.42, 130.36 -0.36 M-0.28 -0.85 C25.97 0.34, 53.24 -0.22, 129.33 0.96 M129.29 -1.2 C129.4 37.93, 128.46 77.11, 129.07 123.19 M130.64 -0.74 C130 28.26, 130.29 57.14, 130.18 123.12 M131.73 123.27 C99.55 124, 73.51 124.43, 1.44 123.82 M129.6 122.37 C96.49 122.28, 61.95 123.48, 0.56 123.04 M1.79 124.63 C0 82, -1.72 41.31, 1.92 1.95 M-0.85 124.03 C0.72 85.09, 1.35 45.86, -0.79 0.31" stroke="#000000" stroke-width="1" fill="none"></path></g><g stroke-linecap="round" transform="translate(2786.6666666666697 1159.4166666666672) rotate(0 65 61.66666666666663)"><path d="M-0.44 -0.93 C34.36 -0.28, 68.12 0.41, 131.29 -1.48 M-0.41 0.18 C45.98 -1.89, 92.76 -1.7, 130.86 -0.03 M131.88 1.44 C131.38 25.22, 129.85 51.13, 129.21 121.4 M130.7 0.56 C129.08 43.74, 129.44 86.61, 130.89 123.98 M128.2 125.25 C92.44 122.49, 49.11 123.46, -1.71 124.72 M129.35 122.54 C96.81 123.6, 62.94 123.71, -0.88 123.33 M-1.68 122.6 C0.27 89.44, 0.1 53.71, -1.28 -0.01 M-0.91 122.36 C0.78 77.02, 1.53 30.27, 0.09 -0.64" stroke="#000000" stroke-width="1" fill="none"></path></g><g stroke-linecap="round" transform="translate(2563.3333333333358 1169.4166666666667) rotate(0 14.16666666666697 13.333333333333371)"><path d="M15.27 0.05 C18.11 -0.32, 21 0.52, 23.01 2.58 C25.01 4.64, 26.59 9.41, 27.29 12.4 C27.99 15.38, 28.79 18.11, 27.18 20.48 C25.57 22.85, 20.84 25.61, 17.65 26.6 C14.46 27.59, 10.78 27.54, 8.04 26.4 C5.31 25.27, 2.51 22.53, 1.25 19.79 C0 17.05, -0.06 12.72, 0.5 9.95 C1.06 7.18, 1.92 4.79, 4.62 3.16 C7.32 1.53, 14.35 0.67, 16.7 0.16 C19.04 -0.35, 18.76 -0.12, 18.72 0.08 M13.59 0.2 C16.51 0.25, 21.35 1.53, 23.68 3.17 C26.01 4.81, 27.12 7.04, 27.58 10.03 C28.04 13.03, 28 18.48, 26.44 21.14 C24.88 23.79, 21.28 25.42, 18.21 25.97 C15.13 26.51, 10.68 25.34, 7.98 24.41 C5.29 23.48, 3.14 22.59, 2.06 20.37 C0.97 18.15, 0.97 14.13, 1.49 11.1 C2.01 8.07, 3.06 3.87, 5.17 2.18 C7.27 0.48, 12.79 1.1, 14.12 0.92 C15.45 0.74, 12.99 1.23, 13.16 1.08" stroke="#000000" stroke-width="1" fill="none"></path></g><g stroke-linecap="round" transform="translate(2727.500000000002 1169.4166666666667) rotate(0 14.16666666666697 13.333333333333371)"><path d="M13.79 -0.2 C16.65 -0.28, 20.74 1.27, 22.98 3.02 C25.21 4.77, 26.58 7.48, 27.21 10.3 C27.84 13.13, 28.05 17.46, 26.75 19.98 C25.45 22.49, 22.36 24.38, 19.41 25.38 C16.46 26.38, 11.79 26.91, 9.04 25.97 C6.28 25.03, 4.33 22.34, 2.86 19.75 C1.4 17.17, 0.07 13.18, 0.23 10.46 C0.39 7.74, 1.13 5.03, 3.8 3.45 C6.47 1.86, 13.85 1.39, 16.24 0.97 C18.63 0.54, 18.31 0.81, 18.14 0.89 M19.42 -0.69 C22.2 -0.06, 23.42 4.32, 24.99 6.83 C26.56 9.33, 28.91 11.8, 28.84 14.34 C28.78 16.87, 26.86 20.15, 24.6 22.01 C22.33 23.86, 18.54 24.99, 15.26 25.48 C11.99 25.97, 7.22 26.65, 4.95 24.94 C2.67 23.23, 2.14 18.13, 1.59 15.22 C1.04 12.3, 0.47 9.69, 1.63 7.45 C2.78 5.2, 5.5 2.74, 8.53 1.75 C11.56 0.76, 17.98 1.46, 19.79 1.53 C21.6 1.6, 19.48 1.99, 19.39 2.15" stroke="#000000" stroke-width="1" fill="none"></path></g><g stroke-linecap="round" transform="translate(2882.5000000000036 1166.0833333333335) rotate(0 14.16666666666697 13.333333333333371)"><path d="M16.42 0.67 C19.45 0.82, 22.84 2.83, 24.96 4.84 C27.07 6.84, 28.96 9.95, 29.11 12.68 C29.25 15.41, 27.76 19.03, 25.83 21.22 C23.89 23.41, 20.38 25.18, 17.49 25.82 C14.6 26.46, 11.3 26.24, 8.46 25.04 C5.63 23.84, 1.95 21.1, 0.48 18.61 C-0.99 16.11, -1.29 12.79, -0.35 10.09 C0.59 7.39, 3.31 3.94, 6.11 2.39 C8.91 0.84, 14.34 1.17, 16.45 0.79 C18.55 0.4, 18.73 -0.1, 18.75 0.07 M13.78 0.78 C16.97 0.77, 22.58 2.04, 25.01 3.92 C27.44 5.79, 28.15 9.14, 28.34 12.02 C28.53 14.9, 27.9 18.63, 26.16 21.18 C24.43 23.74, 21.14 26.39, 17.93 27.34 C14.72 28.29, 9.43 28.19, 6.92 26.89 C4.4 25.59, 3.99 22.38, 2.84 19.55 C1.69 16.72, -0.71 12.88, 0.02 9.9 C0.75 6.92, 4.6 3.24, 7.21 1.67 C9.83 0.09, 14.58 0.52, 15.69 0.44 C16.79 0.37, 13.84 0.91, 13.86 1.23" stroke="#000000" stroke-width="1" fill="none"></path></g><g transform="translate(2480.0000000000036 1211.416666666667) rotate(0 60 13)"><text x="60" y="18" font-family="Virgil, Segoe UI Emoji" font-size="20px" fill="#000000" text-anchor="middle" style="white-space: pre;" direction="ltr">CryptoPunk</text></g><g transform="translate(2638.3333333333367 1209.7500000000005) rotate(0 60 13)"><text x="60" y="18" font-family="Virgil, Segoe UI Emoji" font-size="20px" fill="#000000" text-anchor="middle" style="white-space: pre;" direction="ltr">BAYC</text></g><g transform="translate(2791.6666666666697 1195.083333333334) rotate(0 60 26)"><text x="60" y="18" font-family="Virgil, Segoe UI Emoji" font-size="20px" fill="#000000" text-anchor="middle" style="white-space: pre;" direction="ltr">World of </text><text x="60" y="44" font-family="Virgil, Segoe UI Emoji" font-size="20px" fill="#000000" text-anchor="middle" style="white-space: pre;" direction="ltr">Women</text></g><g stroke-linecap="round" transform="translate(1185.0000000000055 42.16666666666674) rotate(0 526.6666666666665 305.8333333333333)"><path d="M0.09 -0.7 C316.84 -2.16, 633.68 -1.75, 1053.89 -0.22 M0.32 0.02 C375.57 0.12, 751.19 0.41, 1053.6 -0.16 M1053.89 0.54 C1052.78 190.01, 1051.81 379.13, 1053.75 611.04 M1053.44 -0.31 C1051.18 174.76, 1051.3 349.35, 1053.68 611.28 M1053.04 610.94 C743.71 613.45, 433.38 613.47, 0.16 611.91 M1053.23 611.36 C772.76 608.7, 492.18 609.15, -0.37 611.31 M0.07 611.13 C-0.45 434.23, -1.94 257.92, 0.63 -0.4 M0.23 611.4 C-1 443.67, -1.09 275.81, -0.18 -0.11" stroke="#000000" stroke-width="1" fill="none"></path></g><g stroke-linecap="round" transform="translate(1253.3333333333412 148) rotate(0 457.49999999999955 227.5)"><path d="M-0.7 -0.17 C317.04 -0.77, 634.45 0.12, 914.78 0.45 M0.02 0 C214.17 -2.91, 428.75 -2.7, 914.84 0.04 M915.64 0.64 C917.37 115.6, 916.54 232.7, 914.25 454.86 M914.63 -0.46 C913.52 103.24, 913.51 207.51, 914.54 454.97 M914.27 455.37 C679.51 453.68, 444.54 453.79, 0.24 454.73 M914.69 454.95 C722.46 453.99, 530.45 453.71, -0.36 454.96 M-0.64 455.88 C0.72 295.57, 1.75 138.68, -0.47 -0.24 M-0.31 455.12 C-0.04 298.02, 0.14 140.8, -0.13 0.23" stroke="#000000" stroke-width="1" fill="none"></path></g><g transform="translate(1191.3333333333376 10) rotate(0 151.5 13)"><text x="0" y="18" font-family="Virgil, Segoe UI Emoji" font-size="20px" fill="#000000" text-anchor="start" style="white-space: pre;" direction="ltr">Popup - https://netlify.app/list</text></g><g transform="translate(1261.8461538461543 93.9166666666672) rotate(0 95 18)"><text x="0" y="25" font-family="Virgil, Segoe UI Emoji" font-size="27.69230769230769px" fill="#000000" text-anchor="start" style="white-space: pre;" direction="ltr">Events Popup:</text></g><g stroke-linecap="round" transform="translate(1436.6666666666706 404.41666666666674) rotate(0 196.25 26.25)"><path d="M-0.41 0.74 C124.34 1.25, 247.61 -0.5, 392.75 1.03 M0.31 0.13 C120.15 1.45, 239.38 0.72, 392.49 0.19 M391.07 1.97 C390.96 14.27, 393.93 26.76, 393.1 53.6 M392.78 0.34 C392.16 12.3, 392.27 22.34, 392.45 52.52 M392.26 52 C295.24 53.71, 196.63 53.88, -0.33 52.54 M392.05 52.41 C267.97 53.44, 142.91 53.94, -0.55 52.56 M0.02 54.44 C-1.87 40.33, -0.46 28.93, 0.59 0.75 M0.44 52.43 C0.02 37.64, -0.92 21.84, 0.23 -0.47" stroke="#000000" stroke-width="1" fill="none"></path></g><g transform="translate(1301.6666666666706 420.41666666666674) rotate(0 56.5 13)"><text x="0" y="18" font-family="Virgil, Segoe UI Emoji" font-size="20px" fill="#000000" text-anchor="start" style="white-space: pre;" direction="ltr">Server URL</text></g><g stroke-linecap="round" transform="translate(1432.9166666666706 493.16666666666674) rotate(0 196.25 26.25)"><path d="M-0.97 0.12 C80.36 -0.22, 159.25 0.12, 391.84 -0.64 M-0.19 -0.54 C120.73 -1.29, 240.13 -1.48, 392.56 0.32 M393.61 -0.63 C393.46 13.84, 391.53 30.13, 394.02 51.92 M392.27 -0.24 C392.35 13.86, 391.47 28.41, 392.55 52.18 M391.62 53.4 C242.2 52.36, 91.26 53.97, -0.67 53.4 M392.56 52.1 C290.53 53.69, 188.62 53.3, -0.15 52.08 M1.94 51.14 C1.99 35.18, -0.07 14.47, 1.51 1.22 M0.19 52.75 C1.17 37.48, 0.78 21.85, -0.71 0.69" stroke="#000000" stroke-width="1" fill="none"></path></g><g transform="translate(1297.9166666666706 509.16666666666674) rotate(0 56.5 13)"><text x="0" y="18" font-family="Virgil, Segoe UI Emoji" font-size="20px" fill="#000000" text-anchor="start" style="white-space: pre;" direction="ltr">Stream Key</text></g><g stroke-linecap="round" transform="translate(1741.6666666666706 414.41666666666674) rotate(0 36.5 18)"><path d="M-0.3 -1.42 C29.05 -0.66, 53.68 -1.18, 71.87 0.85 M-0.35 0.62 C23.26 0.73, 47.55 -0.35, 73.25 0.24 M74.59 1.88 C70.92 12.16, 72.38 27.39, 72.68 37.41 M72.76 -0.95 C72.26 12.35, 73.46 24.04, 72.72 35.77 M71.67 34.94 C47.65 36.58, 20.42 34.72, 1.11 37.4 M73.32 35.86 C55.78 34.63, 37.95 36.04, -0.48 35.72 M0.38 37.15 C-0.27 26.33, -1.14 19.21, 1.49 -1.58 M0.42 36.27 C1.03 27.85, -0.43 18.24, 0.51 0.99" stroke="#000000" stroke-width="1" fill="none"></path></g><g transform="translate(1746.6666666666706 419.41666666666674) rotate(0 31.5 13)"><text x="31.500000000000014" y="18" font-family="Virgil, Segoe UI Emoji" font-size="20px" fill="#000000" text-anchor="middle" style="white-space: pre;" direction="ltr">Copy</text></g><g stroke-linecap="round" transform="translate(1742.6666666666706 501.41666666666674) rotate(0 36.5 18)"><path d="M-0.03 -1.34 C25.52 1.42, 49.97 -1.49, 72.86 1.59 M0.04 -0.59 C25.03 1.28, 47.69 0.25, 73.69 -0.24 M71.12 1.3 C73.45 10.77, 72.01 25.03, 72.57 34.8 M73.4 0.35 C73.85 13.5, 72.67 25.67, 72.26 35.77 M74.84 34.48 C45.32 34.86, 22.11 36.29, -1.69 35.95 M73.06 36.87 C54.83 35.91, 38.09 36.41, -0.06 36.15 M-0.5 37.48 C-1.02 24.73, -2.19 18.21, 1.96 1.68 M0.94 35.05 C0.54 26.53, 0.08 16.21, 0.72 0.47" stroke="#000000" stroke-width="1" fill="none"></path></g><g transform="translate(1747.6666666666706 506.41666666666674) rotate(0 31.5 13)"><text x="31.500000000000014" y="18" font-family="Virgil, Segoe UI Emoji" font-size="20px" fill="#000000" text-anchor="middle" style="white-space: pre;" direction="ltr">Copy</text></g><g transform="translate(1305.5000000000045 192.2499999999999) rotate(0 58 13)"><text x="0" y="18" font-family="Virgil, Segoe UI Emoji" font-size="20px" fill="#000000" text-anchor="start" style="white-space: pre;" direction="ltr">Event Name</text></g><g transform="translate(1305.8333333333367 231.2499999999999) rotate(0 69.16666666666697 9.222222222222271)"><text x="0" y="12.444444444444535" font-family="Virgil, Segoe UI Emoji" font-size="14.188034188034255px" fill="#000000" text-anchor="start" style="white-space: pre;" direction="ltr">&lt;Event Description&gt;</text></g><g transform="translate(1297.1666666666706 300.58333333333337) rotate(0 152 13)"><text x="0" y="18" font-family="Virgil, Segoe UI Emoji" font-size="20px" fill="#000000" text-anchor="start" style="white-space: pre;" direction="ltr">Timing: &lt;12/01/2022 - 1:30PM&gt;</text></g><g stroke-linecap="round" transform="translate(1969.1666666666706 182.75) rotate(0 77.5 31.666666666666686)"><path d="M-1.84 -1.63 C60.1 0.16, 116.96 -2, 155.55 1.68 M-0.21 -0.1 C50.89 -1.1, 99.26 -1.66, 155.64 -0.4 M153.83 0.48 C156.67 22.42, 154.56 41.08, 153.16 64.88 M155.31 -0.71 C155.78 20, 153.95 38.67, 155.27 62.71 M153.28 63.31 C99.57 63.12, 41.42 63.21, -1.36 62.9 M155.37 62.84 C99 65.25, 43.1 64.2, -0.06 63.41 M-1.46 63.84 C0.36 44.39, 0.74 21.85, 1.51 0.76 M0.06 62.75 C-1.26 44.84, -1.42 26.69, -0.19 0.07" stroke="#000000" stroke-width="1" fill="none"></path></g><g transform="translate(1974.1666666666706 201.41666666666652) rotate(0 72.5 13)"><text x="72.5" y="18" font-family="Virgil, Segoe UI Emoji" font-size="20px" fill="#000000" text-anchor="middle" style="white-space: pre;" direction="ltr">Copy Link</text></g><g stroke-linecap="round" transform="translate(1986.6666666666706 1095.25) rotate(0 77.5 31.66666666666663)"><path d="M-0.04 1.51 C46.44 -0.32, 92.73 0.16, 155.12 -1.17 M0.69 -0.19 C33.7 1.42, 66.62 2.06, 155.69 0.88 M154.58 0.81 C154.98 22.86, 155.37 41.88, 154.77 64.43 M155.88 -0.93 C154.76 20.48, 154.54 41.14, 155.6 62.72 M154.84 65.22 C108.14 62.94, 64.55 65.41, 0.77 62.22 M154.57 62.92 C104.59 62.46, 53.76 62.4, 0.82 63.91 M0.52 61.5 C0.7 44.75, 1.85 29.19, -0.47 0.12 M-0.25 62.83 C-0.09 39.83, 0.32 14.62, 0.22 0.14" stroke="#000000" stroke-width="1" fill="none"></path></g><g transform="translate(1991.6666666666706 1113.9166666666667) rotate(0 72.5 13)"><text x="72.5" y="18" font-family="Virgil, Segoe UI Emoji" font-size="20px" fill="#000000" text-anchor="middle" style="white-space: pre;" direction="ltr">Show Details</text></g><g stroke-linecap="round"><g transform="translate(1971.6666666666706 914.4166666666667) rotate(0 -282.42853029613843 -150.79597808569673)"><path d="M-0.63 1.08 C-95.04 -49.33, -471.99 -252.14, -566.1 -302.67 M1.24 0.6 C-92.85 -49.61, -469.38 -250.41, -563.97 -301.22" stroke="#000000" stroke-width="1" fill="none"></path></g><g transform="translate(1971.6666666666706 914.4166666666667) rotate(0 -282.42853029613843 -150.79597808569673)"><path d="M-532.47 -298.8 C-544.42 -299.07, -553.39 -299.21, -564.85 -302.91 M-535.11 -296.42 C-541.78 -298.67, -549.91 -300.18, -563.26 -300.47" stroke="#000000" stroke-width="1" fill="none"></path></g><g transform="translate(1971.6666666666706 914.4166666666667) rotate(0 -282.42853029613843 -150.79597808569673)"><path d="M-542.15 -280.71 C-550.85 -286.94, -556.6 -293.09, -564.85 -302.91 M-544.79 -278.33 C-548.85 -285.47, -554.32 -291.97, -563.26 -300.47" stroke="#000000" stroke-width="1" fill="none"></path></g></g><g stroke-linecap="round"><g transform="translate(2166.6666666666706 846.9166666666667) rotate(0 90.19921049368577 0.17218899005558796)"><path d="M0.32 0.37 C30 0.64, 149.36 0.86, 179.12 0.98 M-0.98 -0.49 C28.99 -0.47, 151.01 -0.6, 181.37 -0.63" stroke="#000000" stroke-width="1" fill="none"></path></g><g transform="translate(2166.6666666666706 846.9166666666667) rotate(0 90.19921049368577 0.17218899005558796)"><path d="M153.8 8.2 C165.79 3.76, 176.88 0.34, 179.42 -1.91 M153.41 8.94 C164.04 5.32, 175.69 1.79, 181.34 -0.14" stroke="#000000" stroke-width="1" fill="none"></path></g><g transform="translate(2166.6666666666706 846.9166666666667) rotate(0 90.19921049368577 0.17218899005558796)"><path d="M153.78 -12.33 C165.65 -8.82, 176.75 -4.3, 179.42 -1.91 M153.39 -11.58 C163.83 -7.12, 175.49 -2.57, 181.34 -0.14" stroke="#000000" stroke-width="1" fill="none"></path></g></g><g stroke-linecap="round"><g transform="translate(3152.4565085257136 821.9730445141595) rotate(0 -453.7300540758206 0.43636855254879947)"><path d="M0.79 0.06 C-150.25 -0.01, -755.76 0.33, -907.2 0.74 M-0.25 -0.96 C-151.39 -0.39, -757.39 1.55, -908.25 1.83" stroke="#000000" stroke-width="1" fill="none"></path></g><g transform="translate(3152.4565085257136 821.9730445141595) rotate(0 -453.7300540758206 0.43636855254879947)"><path d="M-879.99 -8.81 C-887.6 -7.47, -890.78 -3.8, -907.71 2.38 M-881.08 -7.75 C-887.96 -5.06, -896.97 -2.89, -907.93 2.34" stroke="#000000" stroke-width="1" fill="none"></path></g><g transform="translate(3152.4565085257136 821.9730445141595) rotate(0 -453.7300540758206 0.43636855254879947)"><path d="M-879.94 11.71 C-887.76 8.54, -890.95 7.69, -907.71 2.38 M-881.02 12.78 C-888.08 9.12, -897.1 4.93, -907.93 2.34" stroke="#000000" stroke-width="1" fill="none"></path></g></g><g stroke-linecap="round"><g transform="translate(1081.6666666666706 1751.9166666666667) rotate(0 45.23396277661004 -0.37103012789975764)"><path d="M-0.22 -1.13 C15.04 -1.26, 76.93 0.03, 92.26 0.32 M-1.79 0.9 C13.22 0.9, 75.18 -1.26, 91.18 -1.64" stroke="#000000" stroke-width="1" fill="none"></path></g><g transform="translate(1081.6666666666706 1751.9166666666667) rotate(0 45.23396277661004 -0.37103012789975764)"><path d="M61.43 9.05 C73.81 4.24, 84.38 2.39, 92.72 0.22 M64.04 8.69 C71.51 5.62, 81.1 3.38, 91.84 -2.5" stroke="#000000" stroke-width="1" fill="none"></path></g><g transform="translate(1081.6666666666706 1751.9166666666667) rotate(0 45.23396277661004 -0.37103012789975764)"><path d="M60.83 -11.47 C73.61 -8.86, 84.4 -3.29, 92.72 0.22 M63.44 -11.82 C71 -8.59, 80.77 -4.52, 91.84 -2.5" stroke="#000000" stroke-width="1" fill="none"></path></g></g><g stroke-linecap="round"><g transform="translate(529.9999999999914 2144.416666666666) rotate(0 -2.9232312668889335 58.2359605533145)"><path d="M-0.83 -0.08 C-1.95 19.68, -5.27 98.28, -6.12 117.64 M0.94 -1.17 C-0.35 18.35, -5.57 96.31, -6.79 116.03" stroke="#000000" stroke-width="1" fill="none"></path></g><g transform="translate(529.9999999999914 2144.416666666666) rotate(0 -2.9232312668889335 58.2359605533145)"><path d="M-15.34 88.14 C-10.84 98.6, -10.45 108.54, -7.39 115.85 M-14.97 87.41 C-13.18 96.99, -9.86 104.88, -6.52 116.76" stroke="#000000" stroke-width="1" fill="none"></path></g><g transform="translate(529.9999999999914 2144.416666666666) rotate(0 -2.9232312668889335 58.2359605533145)"><path d="M5.14 89.46 C2.45 99.32, -4.35 108.79, -7.39 115.85 M5.51 88.74 C1.09 97.79, -1.8 105.29, -6.52 116.76" stroke="#000000" stroke-width="1" fill="none"></path></g></g><g stroke-linecap="round" transform="translate(29.999999999989996 2302.249999999999) rotate(0 526.6666666666665 305.83333333333326)"><path d="M-0.22 -0.3 C414.07 -4.25, 826.59 -3.79, 1053.67 0.54 M-0.26 0.11 C355.99 -0.94, 712.33 -0.8, 1053.48 -0.21 M1054.03 0.51 C1051.51 216.67, 1052.05 431.11, 1053.86 611.85 M1052.96 0.01 C1052.91 215.66, 1052.4 430.71, 1052.95 611.57 M1053.76 610.93 C811.51 611.84, 570.87 610.79, -0.24 611.52 M1053.11 611.38 C779.84 608.72, 506.02 608.78, 0.06 611.42 M-0.03 612.43 C2.05 464.16, 2.01 317.6, -0.54 0.33 M0.4 611.7 C-0.37 458.22, 0.13 305.18, -0.07 0.09" stroke="#000000" stroke-width="1" fill="none"></path></g><g stroke-linecap="round" transform="translate(241.66666666665606 2523.916666666666) rotate(0 311.6666666666665 45.83333333333326)"><path d="M-0.3 0.5 C234.32 0.13, 469.7 1.03, 623.87 0.3 M0.11 0.01 C153.88 1.99, 308.11 1.76, 623.12 0.21 M624.6 -1.49 C626.04 22.76, 622.48 47.09, 623.79 92.71 M623.35 0.87 C624.55 24.2, 623.47 48.25, 623.08 90.96 M622.6 91.15 C491.41 93.14, 357.92 92.76, -0.14 91.34 M623.05 91.63 C444.47 89.91, 265.99 90.36, -0.24 91.43 M1.9 92.41 C-2.39 71.38, -1.77 48.45, 0.83 -0.99 M0.09 91.17 C-0.81 64.28, -0.18 35.23, 0.22 0.95" stroke="#000000" stroke-width="1" fill="none"></path></g><g transform="translate(328.3333333333221 2544.916666666667) rotate(0 231 24.5)"><text x="0" y="34" font-family="Virgil, Segoe UI Emoji" font-size="37.94871794871805px" fill="#000000" text-anchor="start" style="white-space: pre;" direction="ltr">You don't have this NFT</text></g><g transform="translate(34.99999999998818 2268.249999999999) rotate(0 358 13)"><text x="0" y="18" font-family="Virgil, Segoe UI Emoji" font-size="20px" fill="#000000" text-anchor="start" style="white-space: pre;" direction="ltr">EVENT PAGE (Unique for each event) - https://netlify.app/event/1jhgjh2</text></g><g stroke-linecap="round"><g transform="translate(1076.6666666666615 1071.083333333332) rotate(0 45.73389503458975 -0.07273318022487274)"><path d="M-0.25 0.61 C14.47 0.3, 74.5 -0.5, 89.35 -0.76 M1.81 -0.11 C16.84 0.23, 76.84 0.39, 91.72 0.38" stroke="#000000" stroke-width="1" fill="none"></path></g><g transform="translate(1076.6666666666615 1071.083333333332) rotate(0 45.73389503458975 -0.07273318022487274)"><path d="M64.53 9.51 C73.04 4.78, 83.62 2.08, 91.39 -1 M62.64 9.92 C72.08 7.56, 82.43 3.63, 91.79 -0.17" stroke="#000000" stroke-width="1" fill="none"></path></g><g transform="translate(1076.6666666666615 1071.083333333332) rotate(0 45.73389503458975 -0.07273318022487274)"><path d="M64.57 -11.01 C73.26 -7.82, 83.81 -2.6, 91.39 -1 M62.67 -10.6 C72.04 -6.3, 82.38 -3.57, 91.79 -0.17" stroke="#000000" stroke-width="1" fill="none"></path></g></g></svg>